<svg xmlns="http://www.w3.org/2000/svg" xmlns:xlink="http://www.w3.org/1999/xlink"><symbol id="advice-around-clock" viewBox="0 0 107 98">
<mask id="path-2-inside-2" fill="white">
<path d="M43.3499 43.0056C36.2653 43.0056 30.5015 48.8799 30.5015 56.1002C30.5015 62.6996 35.3046 66.6397 43.3499 66.6397C51.3952 66.6397 56.1982 62.6996 56.1982 56.1002C56.1982 48.8799 50.4345 43.0056 43.3499 43.0056ZM43.3499 63.4457C39.7219 63.4457 33.6353 62.4913 33.6353 56.1C33.6353 50.6404 37.9932 46.1992 43.3499 46.1992C48.7064 46.1992 53.0645 50.6404 53.0645 56.1C53.0645 62.4913 46.9779 63.4457 43.3499 63.4457Z"/>
<path d="M37.0824 30.2305C33.8797 30.2305 31.755 34.2675 31.755 36.9376C31.755 39.9313 34.1447 42.3671 37.0824 42.3671C40.0201 42.3671 42.4098 39.9315 42.4098 36.9376C42.4098 34.2673 40.2851 30.2305 37.0824 30.2305ZM37.0824 39.1731C35.8728 39.1731 34.8887 38.1703 34.8887 36.9373C34.8887 35.4268 36.1393 33.4241 37.0824 33.4241C38.0255 33.4241 39.2761 35.4268 39.2761 36.9373C39.2761 38.1701 38.292 39.1731 37.0824 39.1731Z"/>
<path d="M49.6173 30.2305C46.4146 30.2305 44.2899 34.2675 44.2899 36.9376C44.2899 39.9313 46.6796 42.3671 49.6173 42.3671C52.555 42.3671 54.9447 39.9315 54.9447 36.9376C54.9447 34.2673 52.82 30.2305 49.6173 30.2305ZM49.6173 39.1731C48.4077 39.1731 47.4236 38.1703 47.4236 36.9373C47.4236 35.4268 48.6741 33.4241 49.6173 33.4241C50.5604 33.4241 51.811 35.4268 51.811 36.9373C51.811 38.1701 50.8269 39.1731 49.6173 39.1731Z"/>
<path d="M59.6451 37.8956C56.4424 37.8956 54.3177 41.9326 54.3177 44.6026C54.3177 47.5964 56.7074 50.0321 59.6451 50.0321C62.5828 50.0321 64.9725 47.5966 64.9725 44.6026C64.9725 41.9324 62.8478 37.8956 59.6451 37.8956ZM59.6451 46.8381C58.4355 46.8381 57.4514 45.8354 57.4514 44.6024C57.4514 43.0919 58.702 41.0891 59.6451 41.0891C60.5883 41.0891 61.8388 43.0919 61.8388 44.6024C61.8388 45.8352 60.8547 46.8381 59.6451 46.8381Z"/>
<path d="M27.0544 37.8956C23.8517 37.8956 21.727 41.9326 21.727 44.6026C21.727 47.5964 24.1167 50.0321 27.0544 50.0321C29.9921 50.0321 32.3818 47.5966 32.3818 44.6026C32.3818 41.9324 30.2571 37.8956 27.0544 37.8956ZM27.0544 46.8381C25.8448 46.8381 24.8607 45.8354 24.8607 44.6024C24.8607 43.0919 26.1112 41.0891 27.0544 41.0891C27.9975 41.0891 29.2481 43.0919 29.2481 44.6024C29.2481 45.8352 28.264 46.8381 27.0544 46.8381Z"/>
<path d="M46.6925 53.2257H44.9168V51.4159C44.9168 50.5337 44.2152 49.8191 43.35 49.8191C42.4848 49.8191 41.7833 50.5339 41.7833 51.4159V53.2257H40.0075C39.1421 53.2257 38.4408 53.9405 38.4408 54.8224C38.4408 55.7047 39.1423 56.4192 40.0075 56.4192H41.7833V58.229C41.7833 59.1112 42.4848 59.8258 43.35 59.8258C44.2152 59.8258 44.9168 59.111 44.9168 58.229V56.4192H46.6925C47.5579 56.4192 48.2593 55.7044 48.2593 54.8224C48.2593 53.9405 47.5577 53.2257 46.6925 53.2257Z"/>
<path d="M62.1969 2.76208C57.4824 1.20917 52.547 0.42218 47.5281 0.42218C34.8327 0.42218 22.8974 5.46064 13.9204 14.6096C4.94374 23.7585 0 35.9225 0 48.861C0 61.7994 4.94373 73.9634 13.9207 83.1126C22.8976 92.2615 34.8329 97.3 47.5283 97.3C48.3937 97.3 49.095 96.5852 49.095 95.7032C49.095 94.821 48.3935 94.1064 47.5283 94.1064C35.6701 94.1064 24.5216 89.4 16.1367 80.8545C7.75165 72.3083 3.13372 60.9464 3.13372 48.861C3.13372 36.7756 7.75165 25.4137 16.1365 16.8679C24.5216 8.32194 35.6699 3.61595 47.5281 3.61595C52.2196 3.61595 56.8304 4.35119 61.2333 5.80143C62.0458 6.07001 62.9434 5.60079 63.2061 4.77312C63.4688 3.9448 63.0094 3.02959 62.1969 2.76208Z"/>
<path d="M106.612 44.2007L101.11 37.791C100.548 37.1365 99.5411 37.0677 98.8987 37.6406L94.516 41.549C93.004 31.4016 88.319 21.9301 81.1356 14.6091C77.712 11.1199 73.8306 8.20152 69.5984 5.93532C68.8425 5.52979 67.8797 5.83564 67.4825 6.60581C67.0854 7.37619 67.3847 8.35743 68.1405 8.76232C72.0929 10.8792 75.7194 13.6061 78.9195 16.8676C86.4058 24.4973 90.8429 34.1847 91.751 44.882C91.8594 46.1583 93.3957 46.7917 94.3438 45.9461L99.7827 41.0957L103.222 45.1016L91.0304 55.9737C90.0584 56.8405 88.5633 56.8405 87.5911 55.9737L75.3996 45.1016L78.8389 41.0957L83.8392 45.5549C84.8963 46.4974 86.5911 45.5862 86.4273 44.1664C84.1082 24.0835 67.3851 8.93868 47.5282 8.93868C25.9288 8.93868 8.35659 26.8476 8.35659 48.8609C8.35659 70.8741 25.9288 88.7831 47.5282 88.7831C48.3936 88.7831 49.095 88.0683 49.095 87.1861C49.095 86.3039 48.3934 85.5893 47.5282 85.5893C27.6569 85.5893 11.4903 69.1132 11.4903 48.8609C11.4903 28.6086 27.6567 12.1324 47.528 12.1324C64.3199 12.1324 78.6765 23.905 82.544 40.156L79.7235 37.6409C79.0811 37.0681 78.0742 37.1371 77.5127 37.7912L72.0099 44.2009C71.44 44.8646 71.506 45.8733 72.1574 46.4541L85.528 58.3774C87.6666 60.2845 90.9558 60.2845 93.0945 58.3774L106.465 46.4541C107.116 45.8733 107.182 44.8646 106.612 44.2007Z"/>
<path d="M73.4335 91.5509H61.8029C66.9836 87.6221 75.0005 80.3138 75.0005 72.7076C75.0005 67.1311 70.5487 62.594 65.077 62.594C59.6054 62.594 55.1536 67.1311 55.1536 72.7076C55.1536 73.5898 55.8552 74.3043 56.7204 74.3043C57.5856 74.3043 58.2871 73.5895 58.2871 72.7076C58.2871 68.8919 61.3331 65.7878 65.0768 65.7878C68.8206 65.7878 71.8665 68.8919 71.8665 72.7076C71.8665 81.9027 56.0732 91.6808 55.9139 91.7781C55.2987 92.1543 55.0096 92.934 55.2268 93.6309C55.431 94.2865 56.0456 94.7444 56.7202 94.7444H73.4333C74.2987 94.7444 75 94.0296 75 93.1477C75.0005 92.2657 74.2989 91.5509 73.4335 91.5509Z"/>
<path d="M98.5034 84.7377H95.0563V64.1911C95.0563 63.5365 94.6492 62.9334 94.0496 62.6995C93.4101 62.4501 92.665 62.6639 92.2475 63.2171L75.5344 85.3605C74.7566 86.3911 75.503 87.931 76.7764 87.931H91.9227V93.1475C91.9227 94.0297 92.6243 94.7443 93.4895 94.7443C94.3547 94.7443 95.0563 94.0295 95.0563 93.1475V87.931H98.5034C99.3689 87.931 100.07 87.2162 100.07 86.3342C100.07 85.4522 99.3686 84.7377 98.5034 84.7377ZM91.9225 84.7377H79.9582L91.9225 68.8862V84.7377Z"/>
</mask>
<path d="M43.3499 43.0056C36.2653 43.0056 30.5015 48.8799 30.5015 56.1002C30.5015 62.6996 35.3046 66.6397 43.3499 66.6397C51.3952 66.6397 56.1982 62.6996 56.1982 56.1002C56.1982 48.8799 50.4345 43.0056 43.3499 43.0056ZM43.3499 63.4457C39.7219 63.4457 33.6353 62.4913 33.6353 56.1C33.6353 50.6404 37.9932 46.1992 43.3499 46.1992C48.7064 46.1992 53.0645 50.6404 53.0645 56.1C53.0645 62.4913 46.9779 63.4457 43.3499 63.4457Z"/>
<path d="M37.0824 30.2305C33.8797 30.2305 31.755 34.2675 31.755 36.9376C31.755 39.9313 34.1447 42.3671 37.0824 42.3671C40.0201 42.3671 42.4098 39.9315 42.4098 36.9376C42.4098 34.2673 40.2851 30.2305 37.0824 30.2305ZM37.0824 39.1731C35.8728 39.1731 34.8887 38.1703 34.8887 36.9373C34.8887 35.4268 36.1393 33.4241 37.0824 33.4241C38.0255 33.4241 39.2761 35.4268 39.2761 36.9373C39.2761 38.1701 38.292 39.1731 37.0824 39.1731Z"/>
<path d="M49.6173 30.2305C46.4146 30.2305 44.2899 34.2675 44.2899 36.9376C44.2899 39.9313 46.6796 42.3671 49.6173 42.3671C52.555 42.3671 54.9447 39.9315 54.9447 36.9376C54.9447 34.2673 52.82 30.2305 49.6173 30.2305ZM49.6173 39.1731C48.4077 39.1731 47.4236 38.1703 47.4236 36.9373C47.4236 35.4268 48.6741 33.4241 49.6173 33.4241C50.5604 33.4241 51.811 35.4268 51.811 36.9373C51.811 38.1701 50.8269 39.1731 49.6173 39.1731Z"/>
<path d="M59.6451 37.8956C56.4424 37.8956 54.3177 41.9326 54.3177 44.6026C54.3177 47.5964 56.7074 50.0321 59.6451 50.0321C62.5828 50.0321 64.9725 47.5966 64.9725 44.6026C64.9725 41.9324 62.8478 37.8956 59.6451 37.8956ZM59.6451 46.8381C58.4355 46.8381 57.4514 45.8354 57.4514 44.6024C57.4514 43.0919 58.702 41.0891 59.6451 41.0891C60.5883 41.0891 61.8388 43.0919 61.8388 44.6024C61.8388 45.8352 60.8547 46.8381 59.6451 46.8381Z"/>
<path d="M27.0544 37.8956C23.8517 37.8956 21.727 41.9326 21.727 44.6026C21.727 47.5964 24.1167 50.0321 27.0544 50.0321C29.9921 50.0321 32.3818 47.5966 32.3818 44.6026C32.3818 41.9324 30.2571 37.8956 27.0544 37.8956ZM27.0544 46.8381C25.8448 46.8381 24.8607 45.8354 24.8607 44.6024C24.8607 43.0919 26.1112 41.0891 27.0544 41.0891C27.9975 41.0891 29.2481 43.0919 29.2481 44.6024C29.2481 45.8352 28.264 46.8381 27.0544 46.8381Z"/>
<path d="M46.6925 53.2257H44.9168V51.4159C44.9168 50.5337 44.2152 49.8191 43.35 49.8191C42.4848 49.8191 41.7833 50.5339 41.7833 51.4159V53.2257H40.0075C39.1421 53.2257 38.4408 53.9405 38.4408 54.8224C38.4408 55.7047 39.1423 56.4192 40.0075 56.4192H41.7833V58.229C41.7833 59.1112 42.4848 59.8258 43.35 59.8258C44.2152 59.8258 44.9168 59.111 44.9168 58.229V56.4192H46.6925C47.5579 56.4192 48.2593 55.7044 48.2593 54.8224C48.2593 53.9405 47.5577 53.2257 46.6925 53.2257Z"/>
<path d="M62.1969 2.76208C57.4824 1.20917 52.547 0.42218 47.5281 0.42218C34.8327 0.42218 22.8974 5.46064 13.9204 14.6096C4.94374 23.7585 0 35.9225 0 48.861C0 61.7994 4.94373 73.9634 13.9207 83.1126C22.8976 92.2615 34.8329 97.3 47.5283 97.3C48.3937 97.3 49.095 96.5852 49.095 95.7032C49.095 94.821 48.3935 94.1064 47.5283 94.1064C35.6701 94.1064 24.5216 89.4 16.1367 80.8545C7.75165 72.3083 3.13372 60.9464 3.13372 48.861C3.13372 36.7756 7.75165 25.4137 16.1365 16.8679C24.5216 8.32194 35.6699 3.61595 47.5281 3.61595C52.2196 3.61595 56.8304 4.35119 61.2333 5.80143C62.0458 6.07001 62.9434 5.60079 63.2061 4.77312C63.4688 3.9448 63.0094 3.02959 62.1969 2.76208Z"/>
<path d="M106.612 44.2007L101.11 37.791C100.548 37.1365 99.5411 37.0677 98.8987 37.6406L94.516 41.549C93.004 31.4016 88.319 21.9301 81.1356 14.6091C77.712 11.1199 73.8306 8.20152 69.5984 5.93532C68.8425 5.52979 67.8797 5.83564 67.4825 6.60581C67.0854 7.37619 67.3847 8.35743 68.1405 8.76232C72.0929 10.8792 75.7194 13.6061 78.9195 16.8676C86.4058 24.4973 90.8429 34.1847 91.751 44.882C91.8594 46.1583 93.3957 46.7917 94.3438 45.9461L99.7827 41.0957L103.222 45.1016L91.0304 55.9737C90.0584 56.8405 88.5633 56.8405 87.5911 55.9737L75.3996 45.1016L78.8389 41.0957L83.8392 45.5549C84.8963 46.4974 86.5911 45.5862 86.4273 44.1664C84.1082 24.0835 67.3851 8.93868 47.5282 8.93868C25.9288 8.93868 8.35659 26.8476 8.35659 48.8609C8.35659 70.8741 25.9288 88.7831 47.5282 88.7831C48.3936 88.7831 49.095 88.0683 49.095 87.1861C49.095 86.3039 48.3934 85.5893 47.5282 85.5893C27.6569 85.5893 11.4903 69.1132 11.4903 48.8609C11.4903 28.6086 27.6567 12.1324 47.528 12.1324C64.3199 12.1324 78.6765 23.905 82.544 40.156L79.7235 37.6409C79.0811 37.0681 78.0742 37.1371 77.5127 37.7912L72.0099 44.2009C71.44 44.8646 71.506 45.8733 72.1574 46.4541L85.528 58.3774C87.6666 60.2845 90.9558 60.2845 93.0945 58.3774L106.465 46.4541C107.116 45.8733 107.182 44.8646 106.612 44.2007Z"/>
<path d="M73.4335 91.5509H61.8029C66.9836 87.6221 75.0005 80.3138 75.0005 72.7076C75.0005 67.1311 70.5487 62.594 65.077 62.594C59.6054 62.594 55.1536 67.1311 55.1536 72.7076C55.1536 73.5898 55.8552 74.3043 56.7204 74.3043C57.5856 74.3043 58.2871 73.5895 58.2871 72.7076C58.2871 68.8919 61.3331 65.7878 65.0768 65.7878C68.8206 65.7878 71.8665 68.8919 71.8665 72.7076C71.8665 81.9027 56.0732 91.6808 55.9139 91.7781C55.2987 92.1543 55.0096 92.934 55.2268 93.6309C55.431 94.2865 56.0456 94.7444 56.7202 94.7444H73.4333C74.2987 94.7444 75 94.0296 75 93.1477C75.0005 92.2657 74.2989 91.5509 73.4335 91.5509Z"/>
<path d="M98.5034 84.7377H95.0563V64.1911C95.0563 63.5365 94.6492 62.9334 94.0496 62.6995C93.4101 62.4501 92.665 62.6639 92.2475 63.2171L75.5344 85.3605C74.7566 86.3911 75.503 87.931 76.7764 87.931H91.9227V93.1475C91.9227 94.0297 92.6243 94.7443 93.4895 94.7443C94.3547 94.7443 95.0563 94.0295 95.0563 93.1475V87.931H98.5034C99.3689 87.931 100.07 87.2162 100.07 86.3342C100.07 85.4522 99.3686 84.7377 98.5034 84.7377ZM91.9225 84.7377H79.9582L91.9225 68.8862V84.7377Z"/>
<path d="M43.3499 43.0056C36.2653 43.0056 30.5015 48.8799 30.5015 56.1002C30.5015 62.6996 35.3046 66.6397 43.3499 66.6397C51.3952 66.6397 56.1982 62.6996 56.1982 56.1002C56.1982 48.8799 50.4345 43.0056 43.3499 43.0056ZM43.3499 63.4457C39.7219 63.4457 33.6353 62.4913 33.6353 56.1C33.6353 50.6404 37.9932 46.1992 43.3499 46.1992C48.7064 46.1992 53.0645 50.6404 53.0645 56.1C53.0645 62.4913 46.9779 63.4457 43.3499 63.4457Z" stroke="#1F1C1D" stroke-width="2" mask="url(#path-2-inside-2)"/>
<path d="M37.0824 30.2305C33.8797 30.2305 31.755 34.2675 31.755 36.9376C31.755 39.9313 34.1447 42.3671 37.0824 42.3671C40.0201 42.3671 42.4098 39.9315 42.4098 36.9376C42.4098 34.2673 40.2851 30.2305 37.0824 30.2305ZM37.0824 39.1731C35.8728 39.1731 34.8887 38.1703 34.8887 36.9373C34.8887 35.4268 36.1393 33.4241 37.0824 33.4241C38.0255 33.4241 39.2761 35.4268 39.2761 36.9373C39.2761 38.1701 38.292 39.1731 37.0824 39.1731Z" stroke="#1F1C1D" stroke-width="2" mask="url(#path-2-inside-2)"/>
<path d="M49.6173 30.2305C46.4146 30.2305 44.2899 34.2675 44.2899 36.9376C44.2899 39.9313 46.6796 42.3671 49.6173 42.3671C52.555 42.3671 54.9447 39.9315 54.9447 36.9376C54.9447 34.2673 52.82 30.2305 49.6173 30.2305ZM49.6173 39.1731C48.4077 39.1731 47.4236 38.1703 47.4236 36.9373C47.4236 35.4268 48.6741 33.4241 49.6173 33.4241C50.5604 33.4241 51.811 35.4268 51.811 36.9373C51.811 38.1701 50.8269 39.1731 49.6173 39.1731Z" stroke="#1F1C1D" stroke-width="2" mask="url(#path-2-inside-2)"/>
<path d="M59.6451 37.8956C56.4424 37.8956 54.3177 41.9326 54.3177 44.6026C54.3177 47.5964 56.7074 50.0321 59.6451 50.0321C62.5828 50.0321 64.9725 47.5966 64.9725 44.6026C64.9725 41.9324 62.8478 37.8956 59.6451 37.8956ZM59.6451 46.8381C58.4355 46.8381 57.4514 45.8354 57.4514 44.6024C57.4514 43.0919 58.702 41.0891 59.6451 41.0891C60.5883 41.0891 61.8388 43.0919 61.8388 44.6024C61.8388 45.8352 60.8547 46.8381 59.6451 46.8381Z" stroke="#1F1C1D" stroke-width="2" mask="url(#path-2-inside-2)"/>
<path d="M27.0544 37.8956C23.8517 37.8956 21.727 41.9326 21.727 44.6026C21.727 47.5964 24.1167 50.0321 27.0544 50.0321C29.9921 50.0321 32.3818 47.5966 32.3818 44.6026C32.3818 41.9324 30.2571 37.8956 27.0544 37.8956ZM27.0544 46.8381C25.8448 46.8381 24.8607 45.8354 24.8607 44.6024C24.8607 43.0919 26.1112 41.0891 27.0544 41.0891C27.9975 41.0891 29.2481 43.0919 29.2481 44.6024C29.2481 45.8352 28.264 46.8381 27.0544 46.8381Z" stroke="#1F1C1D" stroke-width="2" mask="url(#path-2-inside-2)"/>
<path d="M46.6925 53.2257H44.9168V51.4159C44.9168 50.5337 44.2152 49.8191 43.35 49.8191C42.4848 49.8191 41.7833 50.5339 41.7833 51.4159V53.2257H40.0075C39.1421 53.2257 38.4408 53.9405 38.4408 54.8224C38.4408 55.7047 39.1423 56.4192 40.0075 56.4192H41.7833V58.229C41.7833 59.1112 42.4848 59.8258 43.35 59.8258C44.2152 59.8258 44.9168 59.111 44.9168 58.229V56.4192H46.6925C47.5579 56.4192 48.2593 55.7044 48.2593 54.8224C48.2593 53.9405 47.5577 53.2257 46.6925 53.2257Z" stroke="#1F1C1D" stroke-width="2" mask="url(#path-2-inside-2)"/>
<path d="M62.1969 2.76208C57.4824 1.20917 52.547 0.42218 47.5281 0.42218C34.8327 0.42218 22.8974 5.46064 13.9204 14.6096C4.94374 23.7585 0 35.9225 0 48.861C0 61.7994 4.94373 73.9634 13.9207 83.1126C22.8976 92.2615 34.8329 97.3 47.5283 97.3C48.3937 97.3 49.095 96.5852 49.095 95.7032C49.095 94.821 48.3935 94.1064 47.5283 94.1064C35.6701 94.1064 24.5216 89.4 16.1367 80.8545C7.75165 72.3083 3.13372 60.9464 3.13372 48.861C3.13372 36.7756 7.75165 25.4137 16.1365 16.8679C24.5216 8.32194 35.6699 3.61595 47.5281 3.61595C52.2196 3.61595 56.8304 4.35119 61.2333 5.80143C62.0458 6.07001 62.9434 5.60079 63.2061 4.77312C63.4688 3.9448 63.0094 3.02959 62.1969 2.76208Z" stroke="#1F1C1D" stroke-width="2" mask="url(#path-2-inside-2)"/>
<path d="M106.612 44.2007L101.11 37.791C100.548 37.1365 99.5411 37.0677 98.8987 37.6406L94.516 41.549C93.004 31.4016 88.319 21.9301 81.1356 14.6091C77.712 11.1199 73.8306 8.20152 69.5984 5.93532C68.8425 5.52979 67.8797 5.83564 67.4825 6.60581C67.0854 7.37619 67.3847 8.35743 68.1405 8.76232C72.0929 10.8792 75.7194 13.6061 78.9195 16.8676C86.4058 24.4973 90.8429 34.1847 91.751 44.882C91.8594 46.1583 93.3957 46.7917 94.3438 45.9461L99.7827 41.0957L103.222 45.1016L91.0304 55.9737C90.0584 56.8405 88.5633 56.8405 87.5911 55.9737L75.3996 45.1016L78.8389 41.0957L83.8392 45.5549C84.8963 46.4974 86.5911 45.5862 86.4273 44.1664C84.1082 24.0835 67.3851 8.93868 47.5282 8.93868C25.9288 8.93868 8.35659 26.8476 8.35659 48.8609C8.35659 70.8741 25.9288 88.7831 47.5282 88.7831C48.3936 88.7831 49.095 88.0683 49.095 87.1861C49.095 86.3039 48.3934 85.5893 47.5282 85.5893C27.6569 85.5893 11.4903 69.1132 11.4903 48.8609C11.4903 28.6086 27.6567 12.1324 47.528 12.1324C64.3199 12.1324 78.6765 23.905 82.544 40.156L79.7235 37.6409C79.0811 37.0681 78.0742 37.1371 77.5127 37.7912L72.0099 44.2009C71.44 44.8646 71.506 45.8733 72.1574 46.4541L85.528 58.3774C87.6666 60.2845 90.9558 60.2845 93.0945 58.3774L106.465 46.4541C107.116 45.8733 107.182 44.8646 106.612 44.2007Z" stroke="#1F1C1D" stroke-width="2" mask="url(#path-2-inside-2)"/>
<path d="M73.4335 91.5509H61.8029C66.9836 87.6221 75.0005 80.3138 75.0005 72.7076C75.0005 67.1311 70.5487 62.594 65.077 62.594C59.6054 62.594 55.1536 67.1311 55.1536 72.7076C55.1536 73.5898 55.8552 74.3043 56.7204 74.3043C57.5856 74.3043 58.2871 73.5895 58.2871 72.7076C58.2871 68.8919 61.3331 65.7878 65.0768 65.7878C68.8206 65.7878 71.8665 68.8919 71.8665 72.7076C71.8665 81.9027 56.0732 91.6808 55.9139 91.7781C55.2987 92.1543 55.0096 92.934 55.2268 93.6309C55.431 94.2865 56.0456 94.7444 56.7202 94.7444H73.4333C74.2987 94.7444 75 94.0296 75 93.1477C75.0005 92.2657 74.2989 91.5509 73.4335 91.5509Z" stroke="#1F1C1D" stroke-width="2" mask="url(#path-2-inside-2)"/>
<path d="M98.5034 84.7377H95.0563V64.1911C95.0563 63.5365 94.6492 62.9334 94.0496 62.6995C93.4101 62.4501 92.665 62.6639 92.2475 63.2171L75.5344 85.3605C74.7566 86.3911 75.503 87.931 76.7764 87.931H91.9227V93.1475C91.9227 94.0297 92.6243 94.7443 93.4895 94.7443C94.3547 94.7443 95.0563 94.0295 95.0563 93.1475V87.931H98.5034C99.3689 87.931 100.07 87.2162 100.07 86.3342C100.07 85.4522 99.3686 84.7377 98.5034 84.7377ZM91.9225 84.7377H79.9582L91.9225 68.8862V84.7377Z" stroke="#1F1C1D" stroke-width="2" mask="url(#path-2-inside-2)"/>
</symbol><symbol id="arrow-left" viewBox="0 0 15 31">
<path d="M14 0.652832L2 15.978L14 30.2085" stroke="currentColor" stroke-width="2" fill="none"/>
</symbol><symbol id="arrow-right" viewBox="0 0 15 31">
<path d="M1 0.652832L13 15.978L1 30.2085" stroke="currentColor" stroke-width="2" fill="none"/>
</symbol><symbol id="facebook" viewBox="0 0 7 16">
<path d="M1.51301 3.09869C1.51301 3.5019 1.51301 5.30158 1.51301 5.30158H0V7.99528H1.51301V16H4.62106V7.9955H6.70671C6.70671 7.9955 6.90204 6.70389 6.99672 5.29165C6.72526 5.29165 4.63282 5.29165 4.63282 5.29165C4.63282 5.29165 4.63282 3.72454 4.63282 3.44985C4.63282 3.17458 4.97169 2.80429 5.30662 2.80429C5.64092 2.80429 6.34649 2.80429 7 2.80429C7 2.43754 7 1.17034 7 9.62225e-09C6.12759 9.62225e-09 5.13507 9.62225e-09 4.69758 9.62225e-09C1.43619 -0.000185988 1.51301 2.69619 1.51301 3.09869Z"/>
</symbol><symbol id="free-veterinary-care" viewBox="0 0 98 110">
<mask id="path-1-inside-1" fill="white">
<path d="M13.2964 24.1277C5.96462 24.1277 0 30.2068 0 37.6789C0 44.6094 5.13224 50.3377 11.7261 51.1324V61.5803C11.7261 62.4642 12.4293 63.1809 13.2966 63.1809C14.1639 63.1809 14.8671 62.4642 14.8671 61.5803V51.1324C21.461 50.3377 26.5933 44.6091 26.5933 37.6789C26.5931 30.2068 20.6282 24.1277 13.2964 24.1277ZM13.2964 48.0291C7.69669 48.0291 3.14083 43.386 3.14083 37.6789C3.14083 31.9719 7.69669 27.3287 13.2964 27.3287C18.8962 27.3287 23.452 31.9719 23.452 37.6789C23.452 43.386 18.8964 48.0291 13.2964 48.0291Z"/>
<path d="M13.2964 30.9568C9.65948 30.9568 6.70047 33.9725 6.70047 37.6792C6.70047 41.3858 9.65948 44.4015 13.2964 44.4015C16.9334 44.4015 19.8924 41.3858 19.8924 37.6792C19.8924 33.9725 16.9334 30.9568 13.2964 30.9568ZM13.2964 41.2003C11.3913 41.2003 9.84151 39.6206 9.84151 37.6792C9.84151 35.7378 11.3915 34.158 13.2964 34.158C15.2015 34.158 16.7514 35.7378 16.7514 37.6792C16.7514 39.6206 15.2015 41.2003 13.2964 41.2003Z"/>
<path d="M96.2162 38.6393H95.2739V11.2168C95.2739 6.5687 91.5634 2.7873 87.0029 2.7873H83.548V1.82693C83.548 0.943026 82.845 0.226318 81.9775 0.226318H77.7896C75.5383 0.226318 73.7065 2.09317 73.7065 4.3877C73.7065 6.68222 75.5383 8.54907 77.7896 8.54907H81.9775C82.845 8.54907 83.548 7.83237 83.548 6.94846V5.98809H87.0029C89.8317 5.98809 92.1331 8.33374 92.1331 11.2165V38.6391H91.1908C90.3233 38.6391 89.6202 39.3558 89.6202 40.2397V42.8005C89.6202 49.9196 83.9371 55.7114 76.952 55.7114H56.8502C49.8651 55.7114 44.182 49.9196 44.182 42.8005V40.2397C44.182 39.3558 43.4788 38.6391 42.6115 38.6391H41.6692V11.2168C41.6692 8.33395 43.9707 5.98831 46.7993 5.98831H50.2543V6.94867C50.2543 7.83258 50.9573 8.54928 51.8248 8.54928H56.0126C58.264 8.54928 60.0958 6.68244 60.0958 4.38791C60.096 2.09317 58.2642 0.226318 56.0126 0.226318H51.8248C50.9573 0.226318 50.2543 0.943026 50.2543 1.82693V2.7873H46.7993C42.2387 2.7873 38.5284 6.56891 38.5284 11.2168V38.6393H37.5861C36.7188 38.6393 36.0155 39.356 36.0155 40.2399V42.8007C36.0155 54.5089 45.3619 64.0346 56.8502 64.0346H62.818V71.8238C62.818 72.7077 63.521 73.4244 64.3885 73.4244H65.3308V82.0673C65.3308 95.3054 54.7631 106.075 41.7741 106.075H38.4239C25.4347 106.075 14.8672 95.3054 14.8672 82.0673V69.334C14.8672 68.4501 14.1639 67.7334 13.2966 67.7334C12.4293 67.7334 11.7261 68.4501 11.7261 69.334V82.0673C11.7261 97.0707 23.7026 109.277 38.4239 109.277H41.7741C56.4954 109.277 68.4719 97.0707 68.4719 82.0673V73.4244H69.4142C70.2817 73.4244 70.9847 72.7077 70.9847 71.8238V64.0346H76.9525C88.4405 64.0346 97.7872 54.5091 97.7872 42.8007V40.2399C97.7867 39.356 97.0837 38.6393 96.2162 38.6393ZM80.407 5.34806H77.7896C77.2701 5.34806 76.8473 4.91719 76.8473 4.3877C76.8473 3.8582 77.2701 3.42733 77.7896 3.42733H80.407V5.34806ZM53.3953 3.42733H56.0126C56.5322 3.42733 56.9549 3.8582 56.9549 4.3877C56.9549 4.91719 56.5322 5.34806 56.0126 5.34806H53.3953V3.42733ZM94.6459 42.8007C94.6459 52.7438 86.7087 60.8334 76.9522 60.8334H69.4142C68.5467 60.8334 67.8437 61.5501 67.8437 62.434V70.2232H65.959V62.434C65.959 61.5501 65.256 60.8334 64.3885 60.8334H56.8504C47.094 60.8334 39.1568 52.7438 39.1568 42.8007V41.8403H41.0414V42.8007C41.0414 51.6851 48.1333 58.9128 56.8507 58.9128H76.9525C85.6698 58.9128 92.7617 51.6851 92.7617 42.8007V41.8403H94.6463L94.6459 42.8007Z"/>
<path d="M66.9011 25.835C59.8005 25.835 54.0235 31.7226 54.0235 38.9594C54.0235 45.5739 58.8375 49.523 66.9011 49.523C74.9648 49.523 79.7787 45.5739 79.7787 38.9594C79.7789 31.7226 74.002 25.835 66.9011 25.835ZM66.9011 46.322C63.2648 46.322 57.1643 45.3654 57.1643 38.9594C57.1643 33.4877 61.5321 29.036 66.9011 29.036C72.2701 29.036 76.6379 33.4877 76.6379 38.9594C76.6379 45.3654 70.5374 46.322 66.9011 46.322Z"/>
<path d="M60.6194 13.0306C57.4097 13.0306 55.2799 17.0766 55.2799 19.753C55.2799 22.7538 57.6751 25.1948 60.6194 25.1948C63.5638 25.1948 65.959 22.7538 65.959 19.753C65.9588 17.0768 63.8292 13.0306 60.6194 13.0306ZM60.6194 21.9938C59.4071 21.9938 58.4207 20.9887 58.4207 19.753C58.4207 18.2393 59.6742 16.2318 60.6194 16.2318C61.5647 16.2318 62.8182 18.2393 62.8182 19.753C62.818 20.9885 61.8318 21.9938 60.6194 21.9938Z"/>
<path d="M73.183 13.0306C69.9732 13.0306 67.8434 17.0766 67.8434 19.753C67.8434 22.7538 70.2386 25.1948 73.183 25.1948C76.1273 25.1948 78.5225 22.7538 78.5225 19.753C78.5225 17.0768 76.3927 13.0306 73.183 13.0306ZM73.183 21.9938C71.9706 21.9938 70.9842 20.9887 70.9842 19.753C70.9842 18.2393 72.2377 16.2318 73.183 16.2318C74.1282 16.2318 75.3817 18.2393 75.3817 19.753C75.3817 20.9885 74.3953 21.9938 73.183 21.9938Z"/>
<path d="M83.2338 20.7133C80.024 20.7133 77.8943 24.7592 77.8943 27.4356C77.8943 30.4364 80.2895 32.8775 83.2338 32.8775C86.1782 32.8775 88.5734 30.4364 88.5734 27.4356C88.5734 24.7592 86.4436 20.7133 83.2338 20.7133ZM83.2338 29.6763C82.0215 29.6763 81.0351 28.6712 81.0351 27.4354C81.0351 25.9217 82.2886 23.9143 83.2338 23.9143C84.1791 23.9143 85.4326 25.9217 85.4326 27.4354C85.4324 28.6712 84.4462 29.6763 83.2338 29.6763Z"/>
<path d="M50.5686 20.7133C47.3588 20.7133 45.229 24.7592 45.229 27.4356C45.229 30.4364 47.6242 32.8775 50.5686 32.8775C53.5129 32.8775 55.9081 30.4364 55.9081 27.4356C55.9081 24.7592 53.7784 20.7133 50.5686 20.7133ZM50.5686 29.6763C49.3562 29.6763 48.3698 28.6712 48.3698 27.4354C48.3698 25.9217 49.6233 23.9143 50.5686 23.9143C51.5138 23.9143 52.7673 25.9217 52.7673 27.4354C52.7671 28.6712 51.7809 29.6763 50.5686 29.6763Z"/>
</mask>
<path d="M13.2964 24.1277C5.96462 24.1277 0 30.2068 0 37.6789C0 44.6094 5.13224 50.3377 11.7261 51.1324V61.5803C11.7261 62.4642 12.4293 63.1809 13.2966 63.1809C14.1639 63.1809 14.8671 62.4642 14.8671 61.5803V51.1324C21.461 50.3377 26.5933 44.6091 26.5933 37.6789C26.5931 30.2068 20.6282 24.1277 13.2964 24.1277ZM13.2964 48.0291C7.69669 48.0291 3.14083 43.386 3.14083 37.6789C3.14083 31.9719 7.69669 27.3287 13.2964 27.3287C18.8962 27.3287 23.452 31.9719 23.452 37.6789C23.452 43.386 18.8964 48.0291 13.2964 48.0291Z"/>
<path d="M13.2964 30.9568C9.65948 30.9568 6.70047 33.9725 6.70047 37.6792C6.70047 41.3858 9.65948 44.4015 13.2964 44.4015C16.9334 44.4015 19.8924 41.3858 19.8924 37.6792C19.8924 33.9725 16.9334 30.9568 13.2964 30.9568ZM13.2964 41.2003C11.3913 41.2003 9.84151 39.6206 9.84151 37.6792C9.84151 35.7378 11.3915 34.158 13.2964 34.158C15.2015 34.158 16.7514 35.7378 16.7514 37.6792C16.7514 39.6206 15.2015 41.2003 13.2964 41.2003Z"/>
<path d="M96.2162 38.6393H95.2739V11.2168C95.2739 6.5687 91.5634 2.7873 87.0029 2.7873H83.548V1.82693C83.548 0.943026 82.845 0.226318 81.9775 0.226318H77.7896C75.5383 0.226318 73.7065 2.09317 73.7065 4.3877C73.7065 6.68222 75.5383 8.54907 77.7896 8.54907H81.9775C82.845 8.54907 83.548 7.83237 83.548 6.94846V5.98809H87.0029C89.8317 5.98809 92.1331 8.33374 92.1331 11.2165V38.6391H91.1908C90.3233 38.6391 89.6202 39.3558 89.6202 40.2397V42.8005C89.6202 49.9196 83.9371 55.7114 76.952 55.7114H56.8502C49.8651 55.7114 44.182 49.9196 44.182 42.8005V40.2397C44.182 39.3558 43.4788 38.6391 42.6115 38.6391H41.6692V11.2168C41.6692 8.33395 43.9707 5.98831 46.7993 5.98831H50.2543V6.94867C50.2543 7.83258 50.9573 8.54928 51.8248 8.54928H56.0126C58.264 8.54928 60.0958 6.68244 60.0958 4.38791C60.096 2.09317 58.2642 0.226318 56.0126 0.226318H51.8248C50.9573 0.226318 50.2543 0.943026 50.2543 1.82693V2.7873H46.7993C42.2387 2.7873 38.5284 6.56891 38.5284 11.2168V38.6393H37.5861C36.7188 38.6393 36.0155 39.356 36.0155 40.2399V42.8007C36.0155 54.5089 45.3619 64.0346 56.8502 64.0346H62.818V71.8238C62.818 72.7077 63.521 73.4244 64.3885 73.4244H65.3308V82.0673C65.3308 95.3054 54.7631 106.075 41.7741 106.075H38.4239C25.4347 106.075 14.8672 95.3054 14.8672 82.0673V69.334C14.8672 68.4501 14.1639 67.7334 13.2966 67.7334C12.4293 67.7334 11.7261 68.4501 11.7261 69.334V82.0673C11.7261 97.0707 23.7026 109.277 38.4239 109.277H41.7741C56.4954 109.277 68.4719 97.0707 68.4719 82.0673V73.4244H69.4142C70.2817 73.4244 70.9847 72.7077 70.9847 71.8238V64.0346H76.9525C88.4405 64.0346 97.7872 54.5091 97.7872 42.8007V40.2399C97.7867 39.356 97.0837 38.6393 96.2162 38.6393ZM80.407 5.34806H77.7896C77.2701 5.34806 76.8473 4.91719 76.8473 4.3877C76.8473 3.8582 77.2701 3.42733 77.7896 3.42733H80.407V5.34806ZM53.3953 3.42733H56.0126C56.5322 3.42733 56.9549 3.8582 56.9549 4.3877C56.9549 4.91719 56.5322 5.34806 56.0126 5.34806H53.3953V3.42733ZM94.6459 42.8007C94.6459 52.7438 86.7087 60.8334 76.9522 60.8334H69.4142C68.5467 60.8334 67.8437 61.5501 67.8437 62.434V70.2232H65.959V62.434C65.959 61.5501 65.256 60.8334 64.3885 60.8334H56.8504C47.094 60.8334 39.1568 52.7438 39.1568 42.8007V41.8403H41.0414V42.8007C41.0414 51.6851 48.1333 58.9128 56.8507 58.9128H76.9525C85.6698 58.9128 92.7617 51.6851 92.7617 42.8007V41.8403H94.6463L94.6459 42.8007Z"/>
<path d="M66.9011 25.835C59.8005 25.835 54.0235 31.7226 54.0235 38.9594C54.0235 45.5739 58.8375 49.523 66.9011 49.523C74.9648 49.523 79.7787 45.5739 79.7787 38.9594C79.7789 31.7226 74.002 25.835 66.9011 25.835ZM66.9011 46.322C63.2648 46.322 57.1643 45.3654 57.1643 38.9594C57.1643 33.4877 61.5321 29.036 66.9011 29.036C72.2701 29.036 76.6379 33.4877 76.6379 38.9594C76.6379 45.3654 70.5374 46.322 66.9011 46.322Z"/>
<path d="M60.6194 13.0306C57.4097 13.0306 55.2799 17.0766 55.2799 19.753C55.2799 22.7538 57.6751 25.1948 60.6194 25.1948C63.5638 25.1948 65.959 22.7538 65.959 19.753C65.9588 17.0768 63.8292 13.0306 60.6194 13.0306ZM60.6194 21.9938C59.4071 21.9938 58.4207 20.9887 58.4207 19.753C58.4207 18.2393 59.6742 16.2318 60.6194 16.2318C61.5647 16.2318 62.8182 18.2393 62.8182 19.753C62.818 20.9885 61.8318 21.9938 60.6194 21.9938Z"/>
<path d="M73.183 13.0306C69.9732 13.0306 67.8434 17.0766 67.8434 19.753C67.8434 22.7538 70.2386 25.1948 73.183 25.1948C76.1273 25.1948 78.5225 22.7538 78.5225 19.753C78.5225 17.0768 76.3927 13.0306 73.183 13.0306ZM73.183 21.9938C71.9706 21.9938 70.9842 20.9887 70.9842 19.753C70.9842 18.2393 72.2377 16.2318 73.183 16.2318C74.1282 16.2318 75.3817 18.2393 75.3817 19.753C75.3817 20.9885 74.3953 21.9938 73.183 21.9938Z"/>
<path d="M83.2338 20.7133C80.024 20.7133 77.8943 24.7592 77.8943 27.4356C77.8943 30.4364 80.2895 32.8775 83.2338 32.8775C86.1782 32.8775 88.5734 30.4364 88.5734 27.4356C88.5734 24.7592 86.4436 20.7133 83.2338 20.7133ZM83.2338 29.6763C82.0215 29.6763 81.0351 28.6712 81.0351 27.4354C81.0351 25.9217 82.2886 23.9143 83.2338 23.9143C84.1791 23.9143 85.4326 25.9217 85.4326 27.4354C85.4324 28.6712 84.4462 29.6763 83.2338 29.6763Z"/>
<path d="M50.5686 20.7133C47.3588 20.7133 45.229 24.7592 45.229 27.4356C45.229 30.4364 47.6242 32.8775 50.5686 32.8775C53.5129 32.8775 55.9081 30.4364 55.9081 27.4356C55.9081 24.7592 53.7784 20.7133 50.5686 20.7133ZM50.5686 29.6763C49.3562 29.6763 48.3698 28.6712 48.3698 27.4354C48.3698 25.9217 49.6233 23.9143 50.5686 23.9143C51.5138 23.9143 52.7673 25.9217 52.7673 27.4354C52.7671 28.6712 51.7809 29.6763 50.5686 29.6763Z"/>
<path d="M13.2964 24.1277C5.96462 24.1277 0 30.2068 0 37.6789C0 44.6094 5.13224 50.3377 11.7261 51.1324V61.5803C11.7261 62.4642 12.4293 63.1809 13.2966 63.1809C14.1639 63.1809 14.8671 62.4642 14.8671 61.5803V51.1324C21.461 50.3377 26.5933 44.6091 26.5933 37.6789C26.5931 30.2068 20.6282 24.1277 13.2964 24.1277ZM13.2964 48.0291C7.69669 48.0291 3.14083 43.386 3.14083 37.6789C3.14083 31.9719 7.69669 27.3287 13.2964 27.3287C18.8962 27.3287 23.452 31.9719 23.452 37.6789C23.452 43.386 18.8964 48.0291 13.2964 48.0291Z" stroke="#1F1C1D" stroke-width="2" mask="url(#path-1-inside-1)"/>
<path d="M13.2964 30.9568C9.65948 30.9568 6.70047 33.9725 6.70047 37.6792C6.70047 41.3858 9.65948 44.4015 13.2964 44.4015C16.9334 44.4015 19.8924 41.3858 19.8924 37.6792C19.8924 33.9725 16.9334 30.9568 13.2964 30.9568ZM13.2964 41.2003C11.3913 41.2003 9.84151 39.6206 9.84151 37.6792C9.84151 35.7378 11.3915 34.158 13.2964 34.158C15.2015 34.158 16.7514 35.7378 16.7514 37.6792C16.7514 39.6206 15.2015 41.2003 13.2964 41.2003Z" stroke="#1F1C1D" stroke-width="2" mask="url(#path-1-inside-1)"/>
<path d="M96.2162 38.6393H95.2739V11.2168C95.2739 6.5687 91.5634 2.7873 87.0029 2.7873H83.548V1.82693C83.548 0.943026 82.845 0.226318 81.9775 0.226318H77.7896C75.5383 0.226318 73.7065 2.09317 73.7065 4.3877C73.7065 6.68222 75.5383 8.54907 77.7896 8.54907H81.9775C82.845 8.54907 83.548 7.83237 83.548 6.94846V5.98809H87.0029C89.8317 5.98809 92.1331 8.33374 92.1331 11.2165V38.6391H91.1908C90.3233 38.6391 89.6202 39.3558 89.6202 40.2397V42.8005C89.6202 49.9196 83.9371 55.7114 76.952 55.7114H56.8502C49.8651 55.7114 44.182 49.9196 44.182 42.8005V40.2397C44.182 39.3558 43.4788 38.6391 42.6115 38.6391H41.6692V11.2168C41.6692 8.33395 43.9707 5.98831 46.7993 5.98831H50.2543V6.94867C50.2543 7.83258 50.9573 8.54928 51.8248 8.54928H56.0126C58.264 8.54928 60.0958 6.68244 60.0958 4.38791C60.096 2.09317 58.2642 0.226318 56.0126 0.226318H51.8248C50.9573 0.226318 50.2543 0.943026 50.2543 1.82693V2.7873H46.7993C42.2387 2.7873 38.5284 6.56891 38.5284 11.2168V38.6393H37.5861C36.7188 38.6393 36.0155 39.356 36.0155 40.2399V42.8007C36.0155 54.5089 45.3619 64.0346 56.8502 64.0346H62.818V71.8238C62.818 72.7077 63.521 73.4244 64.3885 73.4244H65.3308V82.0673C65.3308 95.3054 54.7631 106.075 41.7741 106.075H38.4239C25.4347 106.075 14.8672 95.3054 14.8672 82.0673V69.334C14.8672 68.4501 14.1639 67.7334 13.2966 67.7334C12.4293 67.7334 11.7261 68.4501 11.7261 69.334V82.0673C11.7261 97.0707 23.7026 109.277 38.4239 109.277H41.7741C56.4954 109.277 68.4719 97.0707 68.4719 82.0673V73.4244H69.4142C70.2817 73.4244 70.9847 72.7077 70.9847 71.8238V64.0346H76.9525C88.4405 64.0346 97.7872 54.5091 97.7872 42.8007V40.2399C97.7867 39.356 97.0837 38.6393 96.2162 38.6393ZM80.407 5.34806H77.7896C77.2701 5.34806 76.8473 4.91719 76.8473 4.3877C76.8473 3.8582 77.2701 3.42733 77.7896 3.42733H80.407V5.34806ZM53.3953 3.42733H56.0126C56.5322 3.42733 56.9549 3.8582 56.9549 4.3877C56.9549 4.91719 56.5322 5.34806 56.0126 5.34806H53.3953V3.42733ZM94.6459 42.8007C94.6459 52.7438 86.7087 60.8334 76.9522 60.8334H69.4142C68.5467 60.8334 67.8437 61.5501 67.8437 62.434V70.2232H65.959V62.434C65.959 61.5501 65.256 60.8334 64.3885 60.8334H56.8504C47.094 60.8334 39.1568 52.7438 39.1568 42.8007V41.8403H41.0414V42.8007C41.0414 51.6851 48.1333 58.9128 56.8507 58.9128H76.9525C85.6698 58.9128 92.7617 51.6851 92.7617 42.8007V41.8403H94.6463L94.6459 42.8007Z" stroke="#1F1C1D" stroke-width="2" mask="url(#path-1-inside-1)"/>
<path d="M66.9011 25.835C59.8005 25.835 54.0235 31.7226 54.0235 38.9594C54.0235 45.5739 58.8375 49.523 66.9011 49.523C74.9648 49.523 79.7787 45.5739 79.7787 38.9594C79.7789 31.7226 74.002 25.835 66.9011 25.835ZM66.9011 46.322C63.2648 46.322 57.1643 45.3654 57.1643 38.9594C57.1643 33.4877 61.5321 29.036 66.9011 29.036C72.2701 29.036 76.6379 33.4877 76.6379 38.9594C76.6379 45.3654 70.5374 46.322 66.9011 46.322Z" stroke="#1F1C1D" stroke-width="2" mask="url(#path-1-inside-1)"/>
<path d="M60.6194 13.0306C57.4097 13.0306 55.2799 17.0766 55.2799 19.753C55.2799 22.7538 57.6751 25.1948 60.6194 25.1948C63.5638 25.1948 65.959 22.7538 65.959 19.753C65.9588 17.0768 63.8292 13.0306 60.6194 13.0306ZM60.6194 21.9938C59.4071 21.9938 58.4207 20.9887 58.4207 19.753C58.4207 18.2393 59.6742 16.2318 60.6194 16.2318C61.5647 16.2318 62.8182 18.2393 62.8182 19.753C62.818 20.9885 61.8318 21.9938 60.6194 21.9938Z" stroke="#1F1C1D" stroke-width="2" mask="url(#path-1-inside-1)"/>
<path d="M73.183 13.0306C69.9732 13.0306 67.8434 17.0766 67.8434 19.753C67.8434 22.7538 70.2386 25.1948 73.183 25.1948C76.1273 25.1948 78.5225 22.7538 78.5225 19.753C78.5225 17.0768 76.3927 13.0306 73.183 13.0306ZM73.183 21.9938C71.9706 21.9938 70.9842 20.9887 70.9842 19.753C70.9842 18.2393 72.2377 16.2318 73.183 16.2318C74.1282 16.2318 75.3817 18.2393 75.3817 19.753C75.3817 20.9885 74.3953 21.9938 73.183 21.9938Z" stroke="#1F1C1D" stroke-width="2" mask="url(#path-1-inside-1)"/>
<path d="M83.2338 20.7133C80.024 20.7133 77.8943 24.7592 77.8943 27.4356C77.8943 30.4364 80.2895 32.8775 83.2338 32.8775C86.1782 32.8775 88.5734 30.4364 88.5734 27.4356C88.5734 24.7592 86.4436 20.7133 83.2338 20.7133ZM83.2338 29.6763C82.0215 29.6763 81.0351 28.6712 81.0351 27.4354C81.0351 25.9217 82.2886 23.9143 83.2338 23.9143C84.1791 23.9143 85.4326 25.9217 85.4326 27.4354C85.4324 28.6712 84.4462 29.6763 83.2338 29.6763Z" stroke="#1F1C1D" stroke-width="2" mask="url(#path-1-inside-1)"/>
<path d="M50.5686 20.7133C47.3588 20.7133 45.229 24.7592 45.229 27.4356C45.229 30.4364 47.6242 32.8775 50.5686 32.8775C53.5129 32.8775 55.9081 30.4364 55.9081 27.4356C55.9081 24.7592 53.7784 20.7133 50.5686 20.7133ZM50.5686 29.6763C49.3562 29.6763 48.3698 28.6712 48.3698 27.4354C48.3698 25.9217 49.6233 23.9143 50.5686 23.9143C51.5138 23.9143 52.7673 25.9217 52.7673 27.4354C52.7671 28.6712 51.7809 29.6763 50.5686 29.6763Z" stroke="#1F1C1D" stroke-width="2" mask="url(#path-1-inside-1)"/>
</symbol><symbol id="individual-approach" viewBox="0 0 71 111">
<mask id="path-3-inside-3" fill="white">
<path d="M70.4381 33.7243L63.8728 18.5283V1.63892C63.8728 0.460406 62.6267 -0.333941 61.6001 0.194047L55.6019 3.27943L49.6036 0.194047C49.1616 -0.0336155 48.6408 -0.0336155 48.1988 0.194047L42.2006 3.27943L36.2025 0.194047C35.7605 -0.0336155 35.2397 -0.0336155 34.7977 0.194047L28.7995 3.27943L22.8012 0.194047C22.3592 -0.0336155 21.8386 -0.0336155 21.3966 0.194047L15.3984 3.27943L9.40011 0.194047C8.37358 -0.333941 7.12741 0.460621 7.12741 1.63892V18.5281L0.561971 33.7241C0.472944 33.9294 0.426758 34.1558 0.426758 34.3802V108.477C0.426758 109.37 1.12999 110.093 1.99727 110.093H69.003C69.8705 110.093 70.5735 109.37 70.5735 108.477V34.3802C70.5733 34.1543 70.5275 33.9309 70.4381 33.7243ZM10.2682 4.25285L14.696 6.53034C15.138 6.758 15.6586 6.758 16.1006 6.53034L22.0988 3.44518L28.0971 6.53034C28.5391 6.758 29.0597 6.758 29.5017 6.53034L35.4999 3.44518L41.4982 6.53034C41.9402 6.758 42.461 6.758 42.903 6.53034L48.901 3.44518L54.8993 6.53034C55.3413 6.758 55.8621 6.758 56.3041 6.53034L60.7316 4.25285V17.2554H10.2682V4.25285ZM3.56758 82.5216H38.2995L44.7121 87.7989L38.2995 93.0762H3.56758V82.5216ZM43.8758 35.9954H54.0314V106.862H3.56758V96.3073H38.8503C39.2069 96.3073 39.5529 96.1824 39.8315 95.9532L48.2072 89.0604C48.9806 88.4236 48.9806 87.1741 48.2072 86.5374L39.8315 79.6445C39.5529 79.4155 39.2071 79.2904 38.8503 79.2904H3.56758V35.9954H36.5469C37.4144 35.9954 38.1174 35.2722 38.1174 34.3798C38.1174 33.4874 37.4144 32.7642 36.5469 32.7642H4.41396L9.7186 20.4863H59.886L54.5816 32.7642H43.8758C43.0083 32.7642 42.3053 33.4874 42.3053 34.3798C42.3053 35.2722 43.0083 35.9954 43.8758 35.9954ZM67.4325 106.862H57.1722V34.7231L62.3023 22.8488L67.4325 34.7231V106.862Z"/>
<path d="M28.7995 51.7194C21.6989 51.7194 15.9219 57.6621 15.9219 64.9664C15.9219 71.6428 20.7361 75.6287 28.7995 75.6287C36.8632 75.6287 41.6771 71.6428 41.6771 64.9664C41.6771 57.6621 35.9002 51.7194 28.7995 51.7194ZM28.7995 72.3978C25.1632 72.3978 19.0627 71.4323 19.0627 64.9664C19.0627 59.4434 23.4307 54.9503 28.7995 54.9503C34.1685 54.9503 38.5363 59.4434 38.5363 64.9664C38.5363 71.4326 32.4358 72.3978 28.7995 72.3978Z"/>
<path d="M22.5176 38.7955C19.3076 38.7955 17.1781 42.8794 17.1781 45.5806C17.1781 48.6095 19.5734 51.0734 22.5176 51.0734C25.462 51.0734 27.8572 48.6095 27.8572 45.5806C27.8572 42.8794 25.7276 38.7955 22.5176 38.7955ZM22.5176 47.8422C21.3053 47.8422 20.3189 46.8277 20.3189 45.5804C20.3189 44.0526 21.5724 42.0264 22.5176 42.0264C23.4628 42.0264 24.7163 44.0524 24.7163 45.5804C24.7163 46.8277 23.7299 47.8422 22.5176 47.8422Z"/>
<path d="M35.0811 38.7955C31.8713 38.7955 29.7416 42.8794 29.7416 45.5806C29.7416 48.6095 32.1369 51.0734 35.0811 51.0734C38.0255 51.0734 40.4206 48.6095 40.4206 45.5806C40.4206 42.8794 38.2909 38.7955 35.0811 38.7955ZM35.0811 47.8422C33.8688 47.8422 32.8824 46.8277 32.8824 45.5804C32.8824 44.0526 34.1361 42.0264 35.0811 42.0264C36.0263 42.0264 37.2798 44.0524 37.2798 45.5804C37.2798 46.8277 36.2936 47.8422 35.0811 47.8422Z"/>
<path d="M45.132 46.5497C41.9222 46.5497 39.7924 50.6337 39.7924 53.3349C39.7924 56.3637 42.1876 58.8276 45.132 58.8276C48.0763 58.8276 50.4715 56.3637 50.4715 53.3349C50.4715 50.6339 48.3418 46.5497 45.132 46.5497ZM45.132 55.5967C43.9197 55.5967 42.9332 54.5822 42.9332 53.3349C42.9332 51.8068 44.1867 49.7808 45.132 49.7808C46.0772 49.7808 47.3307 51.8068 47.3307 53.3349C47.3307 54.5822 46.3445 55.5967 45.132 55.5967Z"/>
<path d="M12.4668 46.5497C9.25677 46.5497 7.12722 50.6337 7.12722 53.3349C7.12722 56.3637 9.52239 58.8276 12.4668 58.8276C15.4111 58.8276 17.8063 56.3637 17.8063 53.3349C17.8063 50.6339 15.6768 46.5497 12.4668 46.5497ZM12.4668 55.5967C11.2544 55.5967 10.268 54.5822 10.268 53.3349C10.268 51.8068 11.5215 49.7808 12.4668 49.7808C13.412 49.7808 14.6655 51.8068 14.6655 53.3349C14.6655 54.5822 13.6791 55.5967 12.4668 55.5967Z"/>
<path d="M15.3984 99.9691H8.69773C7.83045 99.9691 7.12722 100.692 7.12722 101.585C7.12722 102.477 7.83045 103.2 8.69773 103.2H15.3984C16.2657 103.2 16.9689 102.477 16.9689 101.585C16.9687 100.692 16.2657 99.9691 15.3984 99.9691Z"/>
<path d="M37.1751 99.9691H22.0988C21.2315 99.9691 20.5283 100.692 20.5283 101.585C20.5283 102.477 21.2315 103.2 22.0988 103.2H37.1751C38.0426 103.2 38.7456 102.477 38.7456 101.585C38.7456 100.692 38.0426 99.9691 37.1751 99.9691Z"/>
<path d="M20.4237 86.1836H8.69762C7.83034 86.1836 7.12711 86.9068 7.12711 87.7991C7.12711 88.6915 7.83034 89.4147 8.69762 89.4147H20.4237C21.291 89.4147 21.9942 88.6915 21.9942 87.7991C21.9942 86.9065 21.2912 86.1836 20.4237 86.1836Z"/>
<path d="M35.5 86.1836H27.1243C26.2571 86.1836 25.5538 86.9068 25.5538 87.7991C25.5538 88.6915 26.2571 89.4147 27.1243 89.4147H35.5C36.3675 89.4147 37.0705 88.6915 37.0705 87.7991C37.0705 86.9065 36.3677 86.1836 35.5 86.1836Z"/>
</mask>
<path d="M70.4381 33.7243L63.8728 18.5283V1.63892C63.8728 0.460406 62.6267 -0.333941 61.6001 0.194047L55.6019 3.27943L49.6036 0.194047C49.1616 -0.0336155 48.6408 -0.0336155 48.1988 0.194047L42.2006 3.27943L36.2025 0.194047C35.7605 -0.0336155 35.2397 -0.0336155 34.7977 0.194047L28.7995 3.27943L22.8012 0.194047C22.3592 -0.0336155 21.8386 -0.0336155 21.3966 0.194047L15.3984 3.27943L9.40011 0.194047C8.37358 -0.333941 7.12741 0.460621 7.12741 1.63892V18.5281L0.561971 33.7241C0.472944 33.9294 0.426758 34.1558 0.426758 34.3802V108.477C0.426758 109.37 1.12999 110.093 1.99727 110.093H69.003C69.8705 110.093 70.5735 109.37 70.5735 108.477V34.3802C70.5733 34.1543 70.5275 33.9309 70.4381 33.7243ZM10.2682 4.25285L14.696 6.53034C15.138 6.758 15.6586 6.758 16.1006 6.53034L22.0988 3.44518L28.0971 6.53034C28.5391 6.758 29.0597 6.758 29.5017 6.53034L35.4999 3.44518L41.4982 6.53034C41.9402 6.758 42.461 6.758 42.903 6.53034L48.901 3.44518L54.8993 6.53034C55.3413 6.758 55.8621 6.758 56.3041 6.53034L60.7316 4.25285V17.2554H10.2682V4.25285ZM3.56758 82.5216H38.2995L44.7121 87.7989L38.2995 93.0762H3.56758V82.5216ZM43.8758 35.9954H54.0314V106.862H3.56758V96.3073H38.8503C39.2069 96.3073 39.5529 96.1824 39.8315 95.9532L48.2072 89.0604C48.9806 88.4236 48.9806 87.1741 48.2072 86.5374L39.8315 79.6445C39.5529 79.4155 39.2071 79.2904 38.8503 79.2904H3.56758V35.9954H36.5469C37.4144 35.9954 38.1174 35.2722 38.1174 34.3798C38.1174 33.4874 37.4144 32.7642 36.5469 32.7642H4.41396L9.7186 20.4863H59.886L54.5816 32.7642H43.8758C43.0083 32.7642 42.3053 33.4874 42.3053 34.3798C42.3053 35.2722 43.0083 35.9954 43.8758 35.9954ZM67.4325 106.862H57.1722V34.7231L62.3023 22.8488L67.4325 34.7231V106.862Z"/>
<path d="M28.7995 51.7194C21.6989 51.7194 15.9219 57.6621 15.9219 64.9664C15.9219 71.6428 20.7361 75.6287 28.7995 75.6287C36.8632 75.6287 41.6771 71.6428 41.6771 64.9664C41.6771 57.6621 35.9002 51.7194 28.7995 51.7194ZM28.7995 72.3978C25.1632 72.3978 19.0627 71.4323 19.0627 64.9664C19.0627 59.4434 23.4307 54.9503 28.7995 54.9503C34.1685 54.9503 38.5363 59.4434 38.5363 64.9664C38.5363 71.4326 32.4358 72.3978 28.7995 72.3978Z"/>
<path d="M22.5176 38.7955C19.3076 38.7955 17.1781 42.8794 17.1781 45.5806C17.1781 48.6095 19.5734 51.0734 22.5176 51.0734C25.462 51.0734 27.8572 48.6095 27.8572 45.5806C27.8572 42.8794 25.7276 38.7955 22.5176 38.7955ZM22.5176 47.8422C21.3053 47.8422 20.3189 46.8277 20.3189 45.5804C20.3189 44.0526 21.5724 42.0264 22.5176 42.0264C23.4628 42.0264 24.7163 44.0524 24.7163 45.5804C24.7163 46.8277 23.7299 47.8422 22.5176 47.8422Z"/>
<path d="M35.0811 38.7955C31.8713 38.7955 29.7416 42.8794 29.7416 45.5806C29.7416 48.6095 32.1369 51.0734 35.0811 51.0734C38.0255 51.0734 40.4206 48.6095 40.4206 45.5806C40.4206 42.8794 38.2909 38.7955 35.0811 38.7955ZM35.0811 47.8422C33.8688 47.8422 32.8824 46.8277 32.8824 45.5804C32.8824 44.0526 34.1361 42.0264 35.0811 42.0264C36.0263 42.0264 37.2798 44.0524 37.2798 45.5804C37.2798 46.8277 36.2936 47.8422 35.0811 47.8422Z"/>
<path d="M45.132 46.5497C41.9222 46.5497 39.7924 50.6337 39.7924 53.3349C39.7924 56.3637 42.1876 58.8276 45.132 58.8276C48.0763 58.8276 50.4715 56.3637 50.4715 53.3349C50.4715 50.6339 48.3418 46.5497 45.132 46.5497ZM45.132 55.5967C43.9197 55.5967 42.9332 54.5822 42.9332 53.3349C42.9332 51.8068 44.1867 49.7808 45.132 49.7808C46.0772 49.7808 47.3307 51.8068 47.3307 53.3349C47.3307 54.5822 46.3445 55.5967 45.132 55.5967Z"/>
<path d="M12.4668 46.5497C9.25677 46.5497 7.12722 50.6337 7.12722 53.3349C7.12722 56.3637 9.52239 58.8276 12.4668 58.8276C15.4111 58.8276 17.8063 56.3637 17.8063 53.3349C17.8063 50.6339 15.6768 46.5497 12.4668 46.5497ZM12.4668 55.5967C11.2544 55.5967 10.268 54.5822 10.268 53.3349C10.268 51.8068 11.5215 49.7808 12.4668 49.7808C13.412 49.7808 14.6655 51.8068 14.6655 53.3349C14.6655 54.5822 13.6791 55.5967 12.4668 55.5967Z"/>
<path d="M15.3984 99.9691H8.69773C7.83045 99.9691 7.12722 100.692 7.12722 101.585C7.12722 102.477 7.83045 103.2 8.69773 103.2H15.3984C16.2657 103.2 16.9689 102.477 16.9689 101.585C16.9687 100.692 16.2657 99.9691 15.3984 99.9691Z"/>
<path d="M37.1751 99.9691H22.0988C21.2315 99.9691 20.5283 100.692 20.5283 101.585C20.5283 102.477 21.2315 103.2 22.0988 103.2H37.1751C38.0426 103.2 38.7456 102.477 38.7456 101.585C38.7456 100.692 38.0426 99.9691 37.1751 99.9691Z"/>
<path d="M20.4237 86.1836H8.69762C7.83034 86.1836 7.12711 86.9068 7.12711 87.7991C7.12711 88.6915 7.83034 89.4147 8.69762 89.4147H20.4237C21.291 89.4147 21.9942 88.6915 21.9942 87.7991C21.9942 86.9065 21.2912 86.1836 20.4237 86.1836Z"/>
<path d="M35.5 86.1836H27.1243C26.2571 86.1836 25.5538 86.9068 25.5538 87.7991C25.5538 88.6915 26.2571 89.4147 27.1243 89.4147H35.5C36.3675 89.4147 37.0705 88.6915 37.0705 87.7991C37.0705 86.9065 36.3677 86.1836 35.5 86.1836Z"/>
<path d="M70.4381 33.7243L63.8728 18.5283V1.63892C63.8728 0.460406 62.6267 -0.333941 61.6001 0.194047L55.6019 3.27943L49.6036 0.194047C49.1616 -0.0336155 48.6408 -0.0336155 48.1988 0.194047L42.2006 3.27943L36.2025 0.194047C35.7605 -0.0336155 35.2397 -0.0336155 34.7977 0.194047L28.7995 3.27943L22.8012 0.194047C22.3592 -0.0336155 21.8386 -0.0336155 21.3966 0.194047L15.3984 3.27943L9.40011 0.194047C8.37358 -0.333941 7.12741 0.460621 7.12741 1.63892V18.5281L0.561971 33.7241C0.472944 33.9294 0.426758 34.1558 0.426758 34.3802V108.477C0.426758 109.37 1.12999 110.093 1.99727 110.093H69.003C69.8705 110.093 70.5735 109.37 70.5735 108.477V34.3802C70.5733 34.1543 70.5275 33.9309 70.4381 33.7243ZM10.2682 4.25285L14.696 6.53034C15.138 6.758 15.6586 6.758 16.1006 6.53034L22.0988 3.44518L28.0971 6.53034C28.5391 6.758 29.0597 6.758 29.5017 6.53034L35.4999 3.44518L41.4982 6.53034C41.9402 6.758 42.461 6.758 42.903 6.53034L48.901 3.44518L54.8993 6.53034C55.3413 6.758 55.8621 6.758 56.3041 6.53034L60.7316 4.25285V17.2554H10.2682V4.25285ZM3.56758 82.5216H38.2995L44.7121 87.7989L38.2995 93.0762H3.56758V82.5216ZM43.8758 35.9954H54.0314V106.862H3.56758V96.3073H38.8503C39.2069 96.3073 39.5529 96.1824 39.8315 95.9532L48.2072 89.0604C48.9806 88.4236 48.9806 87.1741 48.2072 86.5374L39.8315 79.6445C39.5529 79.4155 39.2071 79.2904 38.8503 79.2904H3.56758V35.9954H36.5469C37.4144 35.9954 38.1174 35.2722 38.1174 34.3798C38.1174 33.4874 37.4144 32.7642 36.5469 32.7642H4.41396L9.7186 20.4863H59.886L54.5816 32.7642H43.8758C43.0083 32.7642 42.3053 33.4874 42.3053 34.3798C42.3053 35.2722 43.0083 35.9954 43.8758 35.9954ZM67.4325 106.862H57.1722V34.7231L62.3023 22.8488L67.4325 34.7231V106.862Z" stroke="#1F1C1D" stroke-width="2" mask="url(#path-3-inside-3)"/>
<path d="M28.7995 51.7194C21.6989 51.7194 15.9219 57.6621 15.9219 64.9664C15.9219 71.6428 20.7361 75.6287 28.7995 75.6287C36.8632 75.6287 41.6771 71.6428 41.6771 64.9664C41.6771 57.6621 35.9002 51.7194 28.7995 51.7194ZM28.7995 72.3978C25.1632 72.3978 19.0627 71.4323 19.0627 64.9664C19.0627 59.4434 23.4307 54.9503 28.7995 54.9503C34.1685 54.9503 38.5363 59.4434 38.5363 64.9664C38.5363 71.4326 32.4358 72.3978 28.7995 72.3978Z" stroke="#1F1C1D" stroke-width="2" mask="url(#path-3-inside-3)"/>
<path d="M22.5176 38.7955C19.3076 38.7955 17.1781 42.8794 17.1781 45.5806C17.1781 48.6095 19.5734 51.0734 22.5176 51.0734C25.462 51.0734 27.8572 48.6095 27.8572 45.5806C27.8572 42.8794 25.7276 38.7955 22.5176 38.7955ZM22.5176 47.8422C21.3053 47.8422 20.3189 46.8277 20.3189 45.5804C20.3189 44.0526 21.5724 42.0264 22.5176 42.0264C23.4628 42.0264 24.7163 44.0524 24.7163 45.5804C24.7163 46.8277 23.7299 47.8422 22.5176 47.8422Z" stroke="#1F1C1D" stroke-width="2" mask="url(#path-3-inside-3)"/>
<path d="M35.0811 38.7955C31.8713 38.7955 29.7416 42.8794 29.7416 45.5806C29.7416 48.6095 32.1369 51.0734 35.0811 51.0734C38.0255 51.0734 40.4206 48.6095 40.4206 45.5806C40.4206 42.8794 38.2909 38.7955 35.0811 38.7955ZM35.0811 47.8422C33.8688 47.8422 32.8824 46.8277 32.8824 45.5804C32.8824 44.0526 34.1361 42.0264 35.0811 42.0264C36.0263 42.0264 37.2798 44.0524 37.2798 45.5804C37.2798 46.8277 36.2936 47.8422 35.0811 47.8422Z" stroke="#1F1C1D" stroke-width="2" mask="url(#path-3-inside-3)"/>
<path d="M45.132 46.5497C41.9222 46.5497 39.7924 50.6337 39.7924 53.3349C39.7924 56.3637 42.1876 58.8276 45.132 58.8276C48.0763 58.8276 50.4715 56.3637 50.4715 53.3349C50.4715 50.6339 48.3418 46.5497 45.132 46.5497ZM45.132 55.5967C43.9197 55.5967 42.9332 54.5822 42.9332 53.3349C42.9332 51.8068 44.1867 49.7808 45.132 49.7808C46.0772 49.7808 47.3307 51.8068 47.3307 53.3349C47.3307 54.5822 46.3445 55.5967 45.132 55.5967Z" stroke="#1F1C1D" stroke-width="2" mask="url(#path-3-inside-3)"/>
<path d="M12.4668 46.5497C9.25677 46.5497 7.12722 50.6337 7.12722 53.3349C7.12722 56.3637 9.52239 58.8276 12.4668 58.8276C15.4111 58.8276 17.8063 56.3637 17.8063 53.3349C17.8063 50.6339 15.6768 46.5497 12.4668 46.5497ZM12.4668 55.5967C11.2544 55.5967 10.268 54.5822 10.268 53.3349C10.268 51.8068 11.5215 49.7808 12.4668 49.7808C13.412 49.7808 14.6655 51.8068 14.6655 53.3349C14.6655 54.5822 13.6791 55.5967 12.4668 55.5967Z" stroke="#1F1C1D" stroke-width="2" mask="url(#path-3-inside-3)"/>
<path d="M15.3984 99.9691H8.69773C7.83045 99.9691 7.12722 100.692 7.12722 101.585C7.12722 102.477 7.83045 103.2 8.69773 103.2H15.3984C16.2657 103.2 16.9689 102.477 16.9689 101.585C16.9687 100.692 16.2657 99.9691 15.3984 99.9691Z" stroke="#1F1C1D" stroke-width="2" mask="url(#path-3-inside-3)"/>
<path d="M37.1751 99.9691H22.0988C21.2315 99.9691 20.5283 100.692 20.5283 101.585C20.5283 102.477 21.2315 103.2 22.0988 103.2H37.1751C38.0426 103.2 38.7456 102.477 38.7456 101.585C38.7456 100.692 38.0426 99.9691 37.1751 99.9691Z" stroke="#1F1C1D" stroke-width="2" mask="url(#path-3-inside-3)"/>
<path d="M20.4237 86.1836H8.69762C7.83034 86.1836 7.12711 86.9068 7.12711 87.7991C7.12711 88.6915 7.83034 89.4147 8.69762 89.4147H20.4237C21.291 89.4147 21.9942 88.6915 21.9942 87.7991C21.9942 86.9065 21.2912 86.1836 20.4237 86.1836Z" stroke="#1F1C1D" stroke-width="2" mask="url(#path-3-inside-3)"/>
<path d="M35.5 86.1836H27.1243C26.2571 86.1836 25.5538 86.9068 25.5538 87.7991C25.5538 88.6915 26.2571 89.4147 27.1243 89.4147H35.5C36.3675 89.4147 37.0705 88.6915 37.0705 87.7991C37.0705 86.9065 36.3677 86.1836 35.5 86.1836Z" stroke="#1F1C1D" stroke-width="2" mask="url(#path-3-inside-3)"/>
</symbol><symbol id="minus" viewBox="0 0 16 2">
<path d="M0 1H16" stroke="white" stroke-width="2"/>
</symbol><symbol id="plus" viewBox="0 0 16 16">
<path d="M8 0V16M0 8H16" stroke="#A07B50" stroke-width="2"/>
</symbol><symbol id="twitter" viewBox="0 0 22 16">
<path d="M19.5074 7.11334C20.743 7.00572 21.5811 6.41271 21.9036 5.60809C21.4579 5.89714 20.0743 6.21227 19.3102 5.91215C19.2728 5.72261 19.231 5.54259 19.1899 5.38005C18.6077 3.12304 16.6142 1.3047 14.5254 1.52437C14.6944 1.45233 14.8658 1.38527 15.0367 1.32506C15.2666 1.23812 16.6156 1.00642 16.4031 0.503749C16.2241 0.061612 14.576 0.837889 14.2657 0.939352C14.6753 0.77671 15.3528 0.496945 15.4254 0C14.7978 0.0908789 14.1817 0.404122 13.7056 0.859596C13.8775 0.664285 14.0079 0.426261 14.0356 0.170094C12.3617 1.29903 11.3838 3.57505 10.5925 5.78288C9.97117 5.14716 9.42045 4.64654 8.9264 4.36856C7.54042 3.58391 5.88325 2.76524 3.28187 1.74576C3.20202 2.65439 3.70753 3.86254 5.16414 4.66598C4.84855 4.62138 4.27144 4.7209 3.80988 4.83759C3.99785 5.87851 4.61174 6.73611 6.27366 7.15081C5.51416 7.20373 5.12164 7.38619 4.7659 7.77946C5.11182 8.50341 5.95593 9.35545 7.47439 9.18055C5.78617 9.94873 6.78602 11.3713 8.15973 11.1591C5.81629 13.7145 2.1216 13.5267 0 11.3894C5.53937 19.358 17.5807 16.102 19.3751 8.42673C20.7196 8.43883 21.5099 7.93508 22 7.37971C21.2254 7.51849 20.1027 7.37507 19.5074 7.11334Z"/>
</symbol><symbol id="vk" viewBox="0 0 25 14">
<path d="M24.7772 12.4871C24.71 12.3767 24.2943 11.4902 22.2942 9.66827C20.2003 7.76041 20.4815 8.0702 23.0036 4.77132C24.5397 2.76224 25.1538 1.53532 24.9616 1.01081C24.7787 0.510836 23.649 0.64273 23.649 0.64273L19.8924 0.664201C19.8924 0.664201 19.6143 0.627393 19.4065 0.748552C19.2049 0.868177 19.0752 1.14423 19.0752 1.14423C19.0752 1.14423 18.4798 2.69936 17.686 4.02136C16.0125 6.81108 15.3421 6.95831 15.0686 6.785C14.4327 6.38165 14.592 5.1624 14.592 4.29742C14.592 1.59359 15.0093 0.46636 13.7779 0.174966C13.3685 0.0783461 13.0685 0.0139328 12.0231 0.00319722C10.6824 -0.0106056 9.54636 0.00779816 8.90413 0.316062C8.47597 0.521571 8.14626 0.980134 8.34784 1.00621C8.59629 1.03841 9.15883 1.15497 9.45729 1.55372C9.84326 2.06749 9.8292 3.22386 9.8292 3.22386C9.8292 3.22386 10.0511 6.40619 9.31197 6.80187C8.80412 7.07333 8.10876 6.51968 6.61646 3.98762C5.85234 2.69169 5.27417 1.25772 5.27417 1.25772C5.27417 1.25772 5.16323 0.990869 4.96478 0.848239C4.72413 0.674937 4.38661 0.619725 4.38661 0.619725L0.814471 0.641196C0.814471 0.641196 0.278494 0.656533 0.0816048 0.885047C-0.093408 1.08902 0.0675413 1.50924 0.0675413 1.50924C0.0675413 1.50924 2.86462 7.93064 6.03048 11.1682C8.93538 14.1358 12.2325 13.941 12.2325 13.941H13.7264C13.7264 13.941 14.178 13.8919 14.4077 13.6481C14.6202 13.4242 14.6124 13.004 14.6124 13.004C14.6124 13.004 14.5827 11.0363 15.514 10.7464C16.4312 10.4612 17.6095 12.6482 18.858 13.4901C19.8018 14.1266 20.519 13.987 20.519 13.987L23.8584 13.941C23.8584 13.941 25.6054 13.8352 24.7772 12.4871Z"/>
</symbol></svg>